<svg width="257" height="71" viewBox="0 0 257 71" fill="none" xmlns="http://www.w3.org/2000/svg">
<path d="M14 11.4V28.9H37.5V40H14V58.5H40.5V69.9H0V0H40.5V11.4H14Z" fill="#D6A77A"/>
<path d="M45.6227 42.2C45.6227 36.4667 46.7893 31.4667 49.1227 27.2C51.456 22.8667 54.6893 19.5333 58.8227 17.2C62.956 14.8 67.6893 13.6 73.0227 13.6C79.8893 13.6 85.556 15.3333 90.0227 18.8C94.556 22.2 97.5893 27 99.1227 33.2H84.0227C83.2227 30.8 81.856 28.9333 79.9227 27.6C78.056 26.2 75.7227 25.5 72.9227 25.5C68.9227 25.5 65.756 26.9667 63.4227 29.9C61.0893 32.7667 59.9227 36.8667 59.9227 42.2C59.9227 47.4667 61.0893 51.5667 63.4227 54.5C65.756 57.3667 68.9227 58.8 72.9227 58.8C78.5893 58.8 82.2893 56.2667 84.0227 51.2H99.1227C97.5893 57.2 94.556 61.9667 90.0227 65.5C85.4893 69.0333 79.8227 70.8 73.0227 70.8C67.6893 70.8 62.956 69.6333 58.8227 67.3C54.6893 64.9 51.456 61.5667 49.1227 57.3C46.7893 52.9667 45.6227 47.9333 45.6227 42.2Z" fill="#D6A77A"/>
<path d="M129.979 70.8C124.646 70.8 119.846 69.6333 115.579 67.3C111.312 64.9 107.946 61.5333 105.479 57.2C103.079 52.8667 101.879 47.8667 101.879 42.2C101.879 36.5333 103.112 31.5333 105.579 27.2C108.112 22.8667 111.546 19.5333 115.879 17.2C120.212 14.8 125.046 13.6 130.379 13.6C135.712 13.6 140.546 14.8 144.879 17.2C149.212 19.5333 152.612 22.8667 155.079 27.2C157.612 31.5333 158.879 36.5333 158.879 42.2C158.879 47.8667 157.579 52.8667 154.979 57.2C152.446 61.5333 148.979 64.9 144.579 67.3C140.246 69.6333 135.379 70.8 129.979 70.8ZM129.979 58.6C132.512 58.6 134.879 58 137.079 56.8C139.346 55.5333 141.146 53.6667 142.479 51.2C143.812 48.7333 144.479 45.7333 144.479 42.2C144.479 36.9333 143.079 32.9 140.279 30.1C137.546 27.2333 134.179 25.8 130.179 25.8C126.179 25.8 122.812 27.2333 120.079 30.1C117.412 32.9 116.079 36.9333 116.079 42.2C116.079 47.4667 117.379 51.5333 119.979 54.4C122.646 57.2 125.979 58.6 129.979 58.6Z" fill="#D6A77A"/>
<path d="M233.948 13.7C240.748 13.7 246.215 15.8 250.348 20C254.548 24.1333 256.648 29.9333 256.648 37.4V69.9H242.648V39.3C242.648 34.9667 241.548 31.6667 239.348 29.4C237.148 27.0667 234.148 25.9 230.348 25.9C226.548 25.9 223.515 27.0667 221.248 29.4C219.048 31.6667 217.948 34.9667 217.948 39.3V69.9H203.948V39.3C203.948 34.9667 202.848 31.6667 200.648 29.4C198.448 27.0667 195.448 25.9 191.648 25.9C187.782 25.9 184.715 27.0667 182.448 29.4C180.248 31.6667 179.148 34.9667 179.148 39.3V69.9H165.148V14.5H179.148V21.2C180.948 18.8667 183.248 17.0333 186.048 15.7C188.915 14.3667 192.048 13.7 195.448 13.7C199.782 13.7 203.648 14.6333 207.048 16.5C210.448 18.3 213.082 20.9 214.948 24.3C216.748 21.1 219.348 18.5333 222.748 16.6C226.215 14.6667 229.948 13.7 233.948 13.7Z" fill="#D6A77A"/>
</svg>
